<svg width="200" height="50" viewBox="0 0 200 50" fill="none" xmlns="http://www.w3.org/2000/svg">
  <circle cx="25" cy="25" r="25" fill="#FFCC00"/>
  <path d="M15 20H35V22.5H15V20Z" fill="#333333"/>
  <path d="M15 25H35V27.5H15V25Z" fill="#333333"/>
  <path d="M15 30H35V32.5H15V30Z" fill="#333333"/>
  <path d="M50 15H55V35H50V15Z" fill="#333333"/>
  <path d="M60 15H80C85 15 85 35 80 35H60V15Z" fill="#333333"/>
  <path d="M60 20H75C77 20 77 30 75 30H60V20Z" fill="#FFCC00"/>
  <path d="M90 15H110C115 15 115 35 110 35H90V15Z" fill="#333333"/>
  <path d="M90 20H105C107 20 107 30 105 30H90V20Z" fill="#FFCC00"/>
  <path d="M120 15H140V35H120V15Z" fill="#333333"/>
  <path d="M125 20H135V30H125V20Z" fill="#FFCC00"/>
  <path d="M150 15H170C180 15 180 35 170 35H150V15Z" fill="#333333"/>
  <path d="M155 20H165C170 20 170 30 165 30H155V20Z" fill="#FFCC00"/>
  <path d="M185 15H200V35H185V15Z" fill="#333333"/>
  <path d="M190 20H195V30H190V20Z" fill="#FFCC00"/>
</svg> 